<svg width="28" height="31" viewBox="0 0 28 31" fill="none" xmlns="http://www.w3.org/2000/svg">
<path d="M3.42857 19.858C3.42857 20.3127 3.24796 20.7487 2.92647 21.0702C2.60498 21.3917 2.16894 21.5723 1.71428 21.5723C1.25963 21.5723 0.823593 21.3917 0.502103 21.0702C0.180612 20.7487 0 20.3127 0 19.858V12.1437C0 11.6891 0.180612 11.253 0.502103 10.9315C0.823593 10.6101 1.25963 10.4294 1.71428 10.4294C2.16894 10.4294 2.60498 10.6101 2.92647 10.9315C3.24796 11.253 3.42857 11.6891 3.42857 12.1437V19.858Z" fill="#7CB342"/>
<path d="M27.4284 19.858C27.4284 20.3127 27.2478 20.7487 26.9263 21.0702C26.6049 21.3917 26.1688 21.5723 25.7142 21.5723C25.2595 21.5723 24.8235 21.3917 24.502 21.0702C24.1805 20.7487 23.9999 20.3127 23.9999 19.858V12.1437C23.9999 11.6891 24.1805 11.253 24.502 10.9315C24.8235 10.6101 25.2595 10.4294 25.7142 10.4294C26.1688 10.4294 26.6049 10.6101 26.9263 10.9315C27.2478 11.253 27.4284 11.6891 27.4284 12.1437V19.858Z" fill="#7CB342"/>
<path d="M12 29.2857C12 29.7404 11.8194 30.1764 11.4979 30.4979C11.1764 30.8194 10.7404 31 10.2857 31C9.83104 31 9.395 30.8194 9.07351 30.4979C8.75202 30.1764 8.57141 29.7404 8.57141 29.2857V21.5715C8.57141 21.1168 8.75202 20.6808 9.07351 20.3593C9.395 20.0378 9.83104 19.8572 10.2857 19.8572C10.7404 19.8572 11.1764 20.0378 11.4979 20.3593C11.8194 20.6808 12 21.1168 12 21.5715V29.2857Z" fill="#7CB342"/>
<path d="M18.857 29.2857C18.857 29.7404 18.6764 30.1764 18.3549 30.4979C18.0334 30.8194 17.5974 31 17.1428 31C16.6881 31 16.2521 30.8194 15.9306 30.4979C15.6091 30.1764 15.4285 29.7404 15.4285 29.2857V21.5715C15.4285 21.1168 15.6091 20.6808 15.9306 20.3593C16.2521 20.0378 16.6881 19.8572 17.1428 19.8572C17.5974 19.8572 18.0334 20.0378 18.3549 20.3593C18.6764 20.6808 18.857 21.1168 18.857 21.5715V29.2857Z" fill="#7CB342"/>
<path d="M5.14282 10.4294V23.2857C5.14282 23.7404 5.32343 24.1764 5.64492 24.4979C5.96642 24.8194 6.40245 25 6.85711 25H20.5714C21.026 25 21.4621 24.8194 21.7836 24.4979C22.1051 24.1764 22.2857 23.7404 22.2857 23.2857V10.4294H5.14282Z" fill="#7CB342"/>
<path d="M13.7142 1.85718C8.57139 1.85718 5.43854 4.98146 5.14282 8.71431H22.2857C21.9891 4.98146 18.8571 1.85718 13.7142 1.85718ZM10.2857 6.65546C10.0583 6.65546 9.84033 6.56515 9.67958 6.40441C9.51884 6.24366 9.42853 6.02564 9.42853 5.79832C9.42853 5.57099 9.51884 5.35297 9.67958 5.19223C9.84033 5.03148 10.0583 4.94117 10.2857 4.94117C10.513 4.94117 10.731 5.03148 10.8918 5.19223C11.0525 5.35297 11.1428 5.57099 11.1428 5.79832C11.1428 6.02564 11.0525 6.24366 10.8918 6.40441C10.731 6.56515 10.513 6.65546 10.2857 6.65546ZM17.1428 6.65546C16.9155 6.65546 16.6975 6.56515 16.5367 6.40441C16.376 6.24366 16.2857 6.02564 16.2857 5.79832C16.2857 5.57099 16.376 5.35297 16.5367 5.19223C16.6975 5.03148 16.9155 4.94117 17.1428 4.94117C17.3701 4.94117 17.5882 5.03148 17.7489 5.19223C17.9096 5.35297 18 5.57099 18 5.79832C18 6.02564 17.9096 6.24366 17.7489 6.40441C17.5882 6.56515 17.3701 6.65546 17.1428 6.65546Z" fill="#7CB342"/>
<path d="M18.8572 1L17.4292 3.142" stroke="#7CB342" stroke-width="1.25" stroke-linecap="round"/>
<path d="M8.57141 1L9.71398 2.78457" stroke="#7CB342" stroke-width="1.25" stroke-linecap="round"/>
</svg>
