<svg width="30" height="30" viewBox="0 0 30 30" fill="none" xmlns="http://www.w3.org/2000/svg">
<path d="M0.626859 0.653625C1.02836 0.252248 1.57283 0.0267662 2.14055 0.0267662C2.70827 0.0267662 3.25275 0.252248 3.65425 0.653625L14.9866 11.986L26.319 0.653625C26.5165 0.449137 26.7527 0.28603 27.0139 0.173822C27.2752 0.0616134 27.5561 0.00255117 27.8404 8.08375e-05C28.1247 -0.0023895 28.4066 0.0517818 28.6697 0.159434C28.9328 0.267086 29.1719 0.426062 29.3729 0.627087C29.5739 0.828113 29.7329 1.06716 29.8406 1.33028C29.9482 1.59341 30.0024 1.87533 29.9999 2.15961C29.9974 2.4439 29.9384 2.72484 29.8262 2.98605C29.714 3.24726 29.5509 3.48351 29.3464 3.68101L18.014 15.0134L29.3464 26.3458C29.7364 26.7496 29.9522 27.2904 29.9473 27.8517C29.9424 28.4131 29.7173 28.9501 29.3203 29.3471C28.9233 29.744 28.3863 29.9692 27.825 29.9741C27.2636 29.9789 26.7228 29.7631 26.319 29.3731L14.9866 18.0408L3.65425 29.3731C3.25045 29.7631 2.70962 29.9789 2.14826 29.9741C1.58689 29.9692 1.0499 29.744 0.652939 29.3471C0.255979 28.9501 0.0308111 28.4131 0.025933 27.8517C0.0210549 27.2904 0.236857 26.7496 0.626859 26.3458L11.9592 15.0134L0.626859 3.68101C0.225481 3.27952 0 2.73504 0 2.16732C0 1.5996 0.225481 1.05512 0.626859 0.653625Z" fill="#F2F2F2"/>
</svg>
