<svg width="552" height="400" viewBox="0 0 552 400" fill="none" xmlns="http://www.w3.org/2000/svg">
<path opacity="0.18" d="M267.507 21.8314C250.831 26.7688 234.946 34.0275 220.328 43.3902C205.225 53.1594 195.063 66.9139 181.245 77.8455C154.235 99.0722 120.512 113.325 88.184 124.367C75.3284 128.767 62.1656 133.002 51.0129 140.723C33.8999 152.568 23.0962 171.567 16.3263 191.133C1.4188 234.071 3.98715 283.637 26.8928 323.032C49.2262 361.306 93.0276 390.587 138.476 389.452C195.943 388.068 253.912 392.219 311.56 392.219C351.718 393.16 392.03 394.087 431.951 389.632C448.631 387.764 465.451 384.886 480.582 377.635C508.959 364.005 533.079 340.038 541.063 309.236C544.235 296.723 544.845 283.707 542.857 270.956C540.87 258.205 536.325 245.978 529.492 234.998C521.033 221.548 509.196 210.201 502.496 195.81C493.493 176.438 494.861 154.187 492.223 133.043C488.647 104.884 477.779 78.1213 460.677 55.3596C450.362 41.7297 437.45 29.359 421.552 22.6201C410.594 17.9846 398.646 16.1857 386.809 14.8158C348.647 10.4431 309.438 10.3463 272.351 20.4476C270.76 20.8904 269.14 21.3471 267.507 21.8314Z" fill="#FFE600"/>
<path d="M275.969 236.646C275.969 236.646 286.972 210.672 289.844 200.522C292.717 190.372 291.874 160.247 291.874 160.247L299.832 139.44C299.832 139.44 355.657 94.0894 371.897 84.2845C388.137 74.4796 407.767 59.2343 413.512 62.6244C419.257 66.0145 418.252 73.4545 411.482 80.8944C408.701 83.9394 404.935 87.1468 402.631 90.4862C400.753 93.2165 398.409 101.793 400.662 104.838C403.362 108.482 410.345 103.194 414.101 106.777C416.08 108.665 415.958 111.984 414.639 114.369C413.319 116.754 411.076 118.429 409.015 120.266C403.524 125.016 398.865 130.985 394.501 136.699C390.035 142.576 392.593 150.909 392.948 157.679C393.374 165.911 394.521 175.726 392.197 183.775C388.472 196.625 366.639 212.53 357.169 220.66C347.699 228.79 339.742 255.85 339.742 255.85L275.969 236.646Z" fill="#FDDDB8"/>
<path d="M339.762 256.357H339.61L275.827 237.154C275.758 237.134 275.694 237.099 275.64 237.051C275.585 237.004 275.542 236.945 275.513 236.88C275.485 236.814 275.471 236.743 275.471 236.672C275.471 236.6 275.485 236.529 275.513 236.463C275.624 236.21 286.535 210.408 289.367 200.401C292.199 190.393 291.397 160.582 291.397 160.288C291.387 160.224 291.387 160.159 291.397 160.095L299.355 139.277C299.387 139.194 299.439 139.121 299.507 139.064C300.065 138.607 355.555 93.5819 371.643 83.8684C375.703 81.4019 380.058 78.5701 384.25 75.8296C397.648 67.0701 409.208 59.5185 413.786 62.2083C414.816 62.7711 415.704 63.5622 416.381 64.521C417.059 65.4799 417.508 66.581 417.694 67.74C418.282 71.6579 416.222 76.4386 411.878 81.2192C410.863 82.2342 409.848 83.3406 408.721 84.4571C406.658 86.3869 404.766 88.4925 403.068 90.7501C401.19 93.4804 399.008 101.753 401.088 104.514C402.245 106.077 404.397 105.721 406.874 105.315C409.35 104.909 412.406 104.412 414.476 106.391C416.547 108.37 416.506 112.116 415.095 114.592C413.789 116.666 412.113 118.482 410.152 119.952L409.361 120.632C403.93 125.331 399.211 131.289 394.927 136.983C391.608 141.338 392.309 147.133 392.989 152.726C393.192 154.441 393.385 156.055 393.476 157.639C393.537 158.907 393.618 160.217 393.709 161.556C394.166 168.793 394.724 177.005 392.694 183.886C389.548 194.808 373.633 207.81 363.036 216.468C361.006 218.133 359.067 219.716 357.514 221.046C348.268 228.973 340.33 255.728 340.259 255.992C340.22 256.121 340.133 256.23 340.016 256.297C339.938 256.337 339.85 256.358 339.762 256.357ZM276.66 236.321L339.417 255.221C340.574 251.404 347.963 227.887 356.855 220.274C358.418 218.934 360.356 217.351 362.397 215.676C372.851 207.14 388.655 194.229 391.72 183.633C393.669 176.913 393.151 168.804 392.735 161.638C392.654 160.298 392.562 158.989 392.501 157.71C392.42 156.167 392.227 154.563 392.024 152.868C391.355 147.336 390.593 141.074 394.156 136.395C398.52 130.65 403.23 124.651 408.741 119.891L409.533 119.201C411.397 117.805 412.996 116.086 414.253 114.126C415.43 111.984 415.664 108.908 413.816 107.142C411.969 105.376 409.553 105.934 407.087 106.34C404.621 106.746 401.839 107.193 400.317 105.133C397.82 101.773 400.398 92.9526 402.276 90.202C404.002 87.883 405.935 85.7257 408.051 83.7567C409.158 82.6504 410.213 81.605 411.167 80.5494C415.227 76.0732 417.257 71.4143 416.73 67.9126C416.578 66.8944 416.19 65.9256 415.598 65.0833C415.006 64.2411 414.226 63.5486 413.319 63.0609C409.259 60.6858 396.856 68.8058 384.838 76.6619C380.646 79.4024 376.302 82.2444 372.212 84.7108C356.52 94.1909 303.039 137.491 300.299 139.744L292.433 160.338C292.494 162.582 293.194 190.788 290.403 200.664C287.703 209.931 278.223 232.596 276.66 236.321Z" fill="#FDDDB8"/>
<path d="M396.485 37.015H334.468C328.818 37.015 324.237 41.5957 324.237 47.2462V193.701C324.237 199.351 328.818 203.932 334.468 203.932H396.485C402.135 203.932 406.716 199.351 406.716 193.701V47.2462C406.716 41.5957 402.135 37.015 396.485 37.015Z" fill="url(#paint0_linear)"/>
<path d="M396.485 204.957H334.438C331.47 204.933 328.632 203.738 326.541 201.631C324.45 199.525 323.275 196.679 323.273 193.711V47.2462C323.275 44.2784 324.45 41.4316 326.541 39.3254C328.632 37.2193 331.47 36.0241 334.438 36H396.454C399.436 36.0027 402.295 37.1884 404.404 39.2969C406.512 41.4054 407.698 44.2643 407.7 47.2462V193.711C407.698 196.687 406.516 199.542 404.414 201.649C402.312 203.757 399.461 204.946 396.485 204.957ZM334.438 38.03C332.009 38.0567 329.689 39.0388 327.979 40.7637C326.269 42.4886 325.308 44.8175 325.303 47.2462V193.711C325.308 196.153 326.281 198.494 328.008 200.222C329.735 201.949 332.076 202.922 334.519 202.927H396.535C398.979 202.924 401.321 201.952 403.049 200.225C404.777 198.497 405.749 196.154 405.752 193.711V47.2462C405.749 44.8027 404.777 42.4601 403.049 40.7323C401.321 39.0045 398.979 38.0327 396.535 38.03H334.438Z" fill="url(#paint1_linear)"/>
<path d="M401.631 50.1694V190.777C401.631 192.748 400.848 194.638 399.454 196.031C398.061 197.424 396.171 198.207 394.201 198.207H336.752C334.781 198.207 332.892 197.424 331.498 196.031C330.105 194.638 329.322 192.748 329.322 190.777V50.1694C329.322 49.1937 329.514 48.2276 329.888 47.3262C330.261 46.4247 330.808 45.6057 331.498 44.9158C332.188 44.2258 333.007 43.6786 333.909 43.3052C334.81 42.9318 335.776 42.7396 336.752 42.7396H346.516V43.9069C346.516 45.0115 346.954 46.071 347.734 46.8531C348.515 47.6351 349.573 48.0758 350.678 48.0785H380.255C381.361 48.0785 382.422 47.639 383.205 46.8567C383.987 46.0743 384.426 45.0133 384.426 43.9069V42.7396H394.191C395.167 42.7383 396.134 42.9295 397.037 43.3023C397.94 43.6751 398.76 44.2221 399.451 44.9122C400.142 45.6022 400.69 46.4217 401.064 47.3238C401.438 48.2259 401.631 49.1929 401.631 50.1694Z" fill="#97ECFF"/>
<path d="M394.201 199.222H336.752C334.513 199.219 332.367 198.329 330.784 196.746C329.2 195.163 328.31 193.016 328.307 190.777V50.1694C328.31 47.9305 329.2 45.7841 330.784 44.201C332.367 42.6179 334.513 41.7273 336.752 41.7246H346.516C346.785 41.7246 347.044 41.8315 347.234 42.0219C347.424 42.2122 347.531 42.4704 347.531 42.7396V43.9069C347.531 44.7423 347.862 45.5437 348.452 46.1354C349.042 46.7271 349.842 47.0608 350.678 47.0635H380.255C381.092 47.0635 381.895 46.7309 382.487 46.1389C383.079 45.547 383.411 44.744 383.411 43.9069V42.7396C383.411 42.4704 383.518 42.2122 383.709 42.0219C383.899 41.8315 384.157 41.7246 384.426 41.7246H394.191C396.43 41.7273 398.576 42.6179 400.159 44.201C401.742 45.7841 402.633 47.9305 402.636 50.1694V190.777C402.633 193.014 401.744 195.159 400.163 196.742C398.582 198.325 396.438 199.217 394.201 199.222ZM336.752 43.7546C335.058 43.768 333.439 44.4494 332.245 45.6507C331.051 46.8519 330.38 48.4759 330.378 50.1694V190.777C330.378 192.479 331.054 194.11 332.257 195.313C333.46 196.516 335.091 197.192 336.793 197.192H394.242C395.942 197.189 397.572 196.513 398.775 195.31C399.977 194.108 400.654 192.478 400.656 190.777V50.1694C400.654 48.4689 399.977 46.8389 398.775 45.6364C397.572 44.434 395.942 43.7573 394.242 43.7546H385.492V43.9069C385.492 45.2824 384.946 46.6017 383.973 47.5744C383 48.5471 381.681 49.0935 380.306 49.0935H350.678C349.302 49.0935 347.983 48.5471 347.01 47.5744C346.038 46.6017 345.491 45.2824 345.491 43.9069V43.7546H336.752Z" fill="url(#paint2_linear)"/>
<path d="M367.618 44.4347H355.804C355.534 44.4347 355.276 44.3277 355.086 44.1374C354.896 43.947 354.789 43.6889 354.789 43.4197C354.789 43.1505 354.896 42.8923 355.086 42.7019C355.276 42.5116 355.534 42.4047 355.804 42.4047H367.618C367.887 42.4047 368.146 42.5116 368.336 42.7019C368.526 42.8923 368.633 43.1505 368.633 43.4197C368.633 43.6889 368.526 43.947 368.336 44.1374C368.146 44.3277 367.887 44.4347 367.618 44.4347Z" fill="url(#paint3_linear)"/>
<path d="M374.145 45.3684C375.221 45.3684 376.093 44.4959 376.093 43.4196C376.093 42.3433 375.221 41.4708 374.145 41.4708C373.068 41.4708 372.196 42.3433 372.196 43.4196C372.196 44.4959 373.068 45.3684 374.145 45.3684Z" fill="url(#paint4_linear)"/>
<path d="M340.386 122.783C340.244 122.782 340.104 122.752 339.975 122.695C339.845 122.637 339.729 122.553 339.634 122.448C339.455 122.248 339.361 121.986 339.374 121.717C339.388 121.449 339.507 121.197 339.705 121.016L387.603 77.7165C387.805 77.5545 388.061 77.4756 388.319 77.4961C388.577 77.5166 388.818 77.6348 388.991 77.8267C389.165 78.0185 389.259 78.2695 389.254 78.5282C389.249 78.787 389.145 79.034 388.963 79.2187L341.066 122.508C340.881 122.681 340.638 122.779 340.386 122.783Z" fill="url(#paint5_linear)"/>
<path d="M338.559 154.197C338.418 154.198 338.278 154.169 338.149 154.113C338.02 154.057 337.903 153.975 337.807 153.872C337.717 153.773 337.647 153.657 337.601 153.531C337.556 153.405 337.536 153.271 337.542 153.136C337.549 153.002 337.582 152.871 337.64 152.75C337.697 152.629 337.779 152.52 337.879 152.431L379.027 115.089C379.125 114.999 379.241 114.929 379.366 114.884C379.492 114.838 379.625 114.818 379.758 114.824C379.892 114.83 380.023 114.863 380.143 114.919C380.264 114.976 380.373 115.056 380.463 115.155C380.553 115.253 380.622 115.369 380.668 115.494C380.713 115.62 380.733 115.753 380.727 115.887C380.721 116.02 380.689 116.151 380.632 116.272C380.575 116.392 380.496 116.501 380.397 116.591L339.239 153.973C339.047 154.128 338.805 154.207 338.559 154.197Z" fill="url(#paint6_linear)"/>
<path d="M358.331 176.435C358.187 176.435 358.044 176.404 357.913 176.345C357.782 176.285 357.665 176.199 357.57 176.09C357.392 175.888 357.302 175.624 357.319 175.356C357.336 175.087 357.459 174.837 357.661 174.659L394.861 142.179C394.959 142.084 395.076 142.01 395.205 141.962C395.333 141.913 395.469 141.891 395.606 141.897C395.743 141.903 395.878 141.936 396.001 141.995C396.125 142.054 396.235 142.138 396.326 142.241C396.416 142.343 396.485 142.464 396.528 142.594C396.571 142.724 396.587 142.861 396.575 142.998C396.563 143.134 396.524 143.267 396.46 143.388C396.395 143.509 396.307 143.616 396.2 143.702L359.001 176.182C358.816 176.345 358.577 176.435 358.331 176.435Z" fill="url(#paint7_linear)"/>
<path d="M343.705 81.1167C343.568 81.1162 343.433 81.0881 343.307 81.034C343.182 80.9799 343.068 80.9011 342.974 80.8021C342.879 80.7077 342.803 80.5955 342.752 80.4718C342.7 80.3481 342.674 80.2154 342.674 80.0814C342.674 79.9474 342.7 79.8148 342.752 79.6911C342.803 79.5674 342.879 79.4551 342.974 79.3608L356.311 66.6225C356.41 66.5265 356.527 66.4517 356.656 66.4025C356.785 66.3534 356.922 66.331 357.06 66.3367C357.198 66.3424 357.333 66.3761 357.457 66.4357C357.581 66.4953 357.692 66.5796 357.783 66.6834C357.972 66.8736 358.078 67.1309 358.078 67.399C358.078 67.6672 357.972 67.9244 357.783 68.1146L344.456 80.8528C344.249 81.0345 343.98 81.1291 343.705 81.1167Z" fill="url(#paint8_linear)"/>
<rect x="351.623" y="40.4785" width="27" height="6" rx="3" fill="white"/>
<path d="M398.327 106.787C398.022 108.191 398.062 109.647 398.442 111.032C398.823 112.417 399.534 113.69 400.513 114.74C401.493 115.791 402.713 116.588 404.068 117.064C405.423 117.541 406.873 117.682 408.295 117.475C409.923 117.221 411.464 116.569 412.781 115.577C413.993 114.696 415 113.563 415.732 112.256C416.465 110.949 416.905 109.499 417.024 108.005C417.308 103.123 413.187 98.87 408.396 98.2813C403.91 97.723 399.211 102.697 398.327 106.787Z" fill="#FDDDB8"/>
<path d="M407.067 118.064C405.661 118.069 404.272 117.759 403.001 117.157C401.731 116.555 400.612 115.676 399.726 114.585C398.84 113.493 398.21 112.217 397.882 110.85C397.554 109.483 397.536 108.06 397.83 106.686C398.845 102.169 403.758 97.1851 408.457 97.7637C413.745 98.4133 417.826 103.021 417.531 108.025C417.41 109.593 416.95 111.116 416.183 112.488C415.415 113.86 414.358 115.049 413.086 115.973C411.702 117.025 410.081 117.722 408.366 118.003C407.935 118.054 407.501 118.074 407.067 118.064ZM407.706 98.7787C403.809 98.7787 399.657 103.072 398.825 106.899C398.541 108.221 398.582 109.593 398.942 110.897C399.303 112.2 399.973 113.397 400.896 114.386C401.819 115.375 402.968 116.126 404.243 116.576C405.519 117.025 406.885 117.159 408.224 116.967C409.771 116.724 411.235 116.104 412.487 115.161C413.645 114.328 414.608 113.252 415.309 112.01C416.01 110.767 416.433 109.387 416.547 107.964C416.801 103.559 413.055 99.3471 408.366 98.7685C408.143 98.7482 407.919 98.7381 407.706 98.7381V98.7787Z" fill="#FDDDB8"/>
<path d="M395.161 138.435C394.58 139.261 394.194 140.208 394.033 141.205C393.871 142.202 393.937 143.222 394.227 144.19C394.696 145.325 395.422 146.336 396.348 147.143C398.795 149.458 402.134 151.092 405.483 150.594C407.517 150.175 409.429 149.3 411.076 148.037C414.02 146.007 416.841 143.449 417.816 140.028C419.226 135.065 415.633 127.848 409.817 128.539C405.006 129.137 397.708 134.486 395.161 138.435Z" fill="#FDDDB8"/>
<path d="M404.245 151.193C401.117 151.07 398.154 149.756 395.963 147.519C394.974 146.658 394.202 145.577 393.709 144.362C393.396 143.319 393.325 142.219 393.501 141.144C393.677 140.07 394.095 139.049 394.724 138.161C397.333 134.101 404.763 128.66 409.706 128.011C410.893 127.873 412.096 128.041 413.2 128.497C414.305 128.954 415.275 129.684 416.019 130.619C417.11 131.919 417.881 133.456 418.271 135.108C418.66 136.76 418.657 138.48 418.262 140.13C417.41 143.175 415.217 145.763 411.33 148.422C409.615 149.73 407.627 150.632 405.514 151.061C405.095 151.136 404.671 151.18 404.245 151.193ZM395.587 138.709C395.047 139.469 394.687 140.342 394.534 141.261C394.381 142.181 394.439 143.123 394.704 144.017C395.154 145.084 395.85 146.03 396.734 146.778C399.404 149.305 402.56 150.513 405.412 150.087C407.366 149.673 409.204 148.831 410.792 147.621C414.466 145.093 416.547 142.637 417.328 139.886C417.681 138.397 417.682 136.847 417.329 135.357C416.977 133.868 416.281 132.482 415.298 131.309C414.66 130.507 413.83 129.879 412.884 129.484C411.938 129.088 410.908 128.937 409.889 129.046C405.27 129.625 398.074 134.933 395.628 138.709H395.587Z" fill="#FDDDB8"/>
<path d="M398.114 159.151C396.983 159.931 396.037 160.949 395.343 162.135C394.662 163.514 394.386 165.057 394.548 166.586C394.71 168.115 395.302 169.567 396.257 170.773C397.234 171.957 398.437 172.934 399.797 173.647C401.156 174.36 402.644 174.794 404.174 174.924C405.975 175.143 407.803 174.978 409.536 174.441C411.27 173.904 412.87 173.007 414.233 171.808C415.576 170.585 416.578 169.033 417.141 167.305C417.703 165.577 417.806 163.732 417.44 161.952C415.248 152.635 403.92 154.929 398.114 159.151Z" fill="#FDDDB8"/>
<path d="M405.646 175.513C405.138 175.513 404.631 175.513 404.113 175.432C402.514 175.296 400.959 174.841 399.54 174.093C398.121 173.345 396.866 172.319 395.851 171.077C394.844 169.791 394.221 168.246 394.054 166.62C393.887 164.995 394.183 163.356 394.907 161.891C395.634 160.641 396.629 159.566 397.82 158.745C401.738 155.893 408.112 153.893 412.7 155.598C414.034 156.102 415.216 156.941 416.131 158.035C417.047 159.128 417.665 160.439 417.927 161.841C418.324 163.707 418.223 165.645 417.635 167.46C417.047 169.275 415.993 170.904 414.578 172.184C412.116 174.362 408.933 175.549 405.646 175.513ZM398.419 159.567C397.349 160.302 396.452 161.262 395.79 162.379C395.153 163.675 394.895 165.126 395.048 166.563C395.201 168 395.757 169.365 396.653 170.499C397.587 171.63 398.738 172.564 400.038 173.244C401.339 173.924 402.762 174.336 404.225 174.457C405.956 174.667 407.712 174.51 409.379 173.996C411.046 173.482 412.585 172.622 413.898 171.473C415.181 170.317 416.137 168.844 416.672 167.201C417.206 165.559 417.3 163.805 416.943 162.115C416.723 160.874 416.185 159.712 415.38 158.742C414.576 157.772 413.533 157.028 412.355 156.583C408.092 155.01 402.113 156.918 398.419 159.628V159.567Z" fill="#FDDDB8"/>
<path d="M279.187 212.276L286.464 197.904L355.322 225.481L347.547 237.996L279.187 212.276Z" fill="#FFE600"/>
<path d="M353.13 233.855L278.507 205.425L253.132 245.274L334.849 276.241L353.13 233.855Z" fill="#231F20"/>
<path d="M334.849 276.749C334.792 276.757 334.734 276.757 334.677 276.749L252.949 245.791C252.88 245.764 252.817 245.722 252.766 245.667C252.715 245.613 252.677 245.548 252.655 245.477C252.622 245.408 252.605 245.334 252.605 245.258C252.605 245.183 252.622 245.108 252.655 245.04L278.03 205.201C278.092 205.103 278.187 205.028 278.298 204.991C278.409 204.954 278.529 204.957 278.639 204.998L353.251 233.418C353.38 233.47 353.485 233.568 353.546 233.692C353.573 233.757 353.587 233.826 353.587 233.895C353.587 233.965 353.573 234.034 353.546 234.098L335.276 276.475C335.235 276.554 335.174 276.621 335.099 276.669C335.024 276.717 334.938 276.744 334.849 276.749ZM253.863 245.02L334.555 275.592L352.419 234.139L278.679 206.044L253.863 245.02Z" fill="#231F20"/>
<path d="M292.016 161.12C292.016 161.12 292.524 117.597 297.599 108.959C302.674 100.321 318.691 64.0352 322.974 63.7815C327.257 63.5277 331.723 76.6618 327.958 88.3445C325.75 95.2285 322.497 101.733 318.315 107.629C318.315 107.629 330.921 121.078 324.06 145.184" fill="#FDDDB8"/>
<path d="M292.016 161.648C291.95 161.646 291.884 161.632 291.823 161.605C291.762 161.579 291.707 161.54 291.661 161.492C291.614 161.444 291.578 161.387 291.554 161.325C291.53 161.263 291.518 161.197 291.519 161.13C291.519 159.354 292.088 117.373 297.173 108.726C298.715 106.087 301.294 100.87 304.278 94.81C313.311 76.4791 319.939 63.477 322.994 63.345C324.111 63.2638 325.258 63.9439 326.293 65.2837C329.571 69.5264 331.368 79.6358 328.404 88.5373C326.196 95.3357 323.006 101.775 318.934 107.65C320.761 109.852 330.8 123.291 324.527 145.367C324.509 145.434 324.478 145.496 324.436 145.551C324.394 145.606 324.341 145.651 324.281 145.686C324.222 145.72 324.156 145.743 324.087 145.751C324.019 145.76 323.949 145.756 323.882 145.738C323.816 145.72 323.753 145.689 323.699 145.647C323.644 145.604 323.598 145.552 323.564 145.492C323.529 145.432 323.507 145.366 323.498 145.298C323.489 145.229 323.494 145.16 323.512 145.093C327.014 132.791 325.298 123.372 323.238 117.688C322.059 114.178 320.242 110.916 317.879 108.066C317.803 107.975 317.761 107.86 317.761 107.741C317.761 107.622 317.803 107.508 317.879 107.416C322.019 101.558 325.243 95.1026 327.44 88.2734C330.241 79.6865 328.607 70.0034 325.491 65.9434C325.231 65.5134 324.875 65.1495 324.45 64.8801C324.026 64.6107 323.545 64.4431 323.045 64.3905C320.355 64.5529 310.865 83.8277 305.181 95.348C302.197 101.438 299.609 106.655 298.076 109.325C293.123 117.739 292.565 160.795 292.565 161.221C292.542 161.348 292.474 161.461 292.373 161.54C292.271 161.619 292.144 161.657 292.016 161.648Z" fill="#FDDDB8"/>
<path d="M278.761 239.691C281.704 239.691 284.089 237.305 284.089 234.362C284.089 231.419 281.704 229.034 278.761 229.034C275.818 229.034 273.432 231.419 273.432 234.362C273.432 237.305 275.818 239.691 278.761 239.691Z" fill="white"/>
<path d="M277.208 107.487C277.11 107.49 277.014 107.462 276.934 107.406L250.229 89.9583C250.116 89.8843 250.037 89.7684 250.009 89.6361C249.982 89.5038 250.008 89.3659 250.082 89.2529C250.156 89.1398 250.272 89.0608 250.404 89.0332C250.536 89.0056 250.674 89.0317 250.787 89.1057L277.502 106.554C277.616 106.628 277.695 106.745 277.724 106.878C277.752 107.011 277.727 107.149 277.654 107.264C277.604 107.335 277.537 107.393 277.459 107.432C277.381 107.471 277.295 107.49 277.208 107.487Z" fill="#D1D3D4"/>
<path d="M265.982 140.891L228.488 139.155C228.421 139.153 228.355 139.137 228.295 139.109C228.234 139.081 228.18 139.042 228.135 138.992C228.089 138.943 228.054 138.886 228.031 138.823C228.008 138.761 227.998 138.694 228 138.628C228.011 138.495 228.071 138.371 228.169 138.28C228.267 138.19 228.395 138.14 228.528 138.14L266.043 139.876C266.177 139.886 266.303 139.948 266.393 140.048C266.484 140.148 266.533 140.279 266.53 140.414C266.519 140.55 266.456 140.676 266.354 140.765C266.251 140.854 266.117 140.899 265.982 140.891Z" fill="#D1D3D4"/>
<path d="M446.997 103.6C446.893 103.597 446.793 103.564 446.708 103.504C446.623 103.445 446.558 103.362 446.52 103.265C446.474 103.138 446.48 102.999 446.537 102.877C446.595 102.755 446.698 102.661 446.824 102.615L468.86 94.4954C468.986 94.4497 469.126 94.4561 469.248 94.5132C469.369 94.5703 469.464 94.6734 469.509 94.7999C469.534 94.8618 469.545 94.9279 469.544 94.9944C469.542 95.0609 469.527 95.1263 469.499 95.1869C469.472 95.2474 469.433 95.3019 469.384 95.347C469.335 95.3921 469.278 95.427 469.215 95.4495L447.169 103.57C447.114 103.59 447.056 103.601 446.997 103.6Z" fill="#D1D3D4"/>
<path d="M473.519 160.481H473.397L448.976 154.533C448.846 154.501 448.733 154.42 448.663 154.306C448.592 154.192 448.57 154.054 448.6 153.924C448.616 153.858 448.644 153.796 448.684 153.742C448.724 153.687 448.774 153.641 448.831 153.606C448.889 153.571 448.953 153.548 449.02 153.538C449.086 153.528 449.154 153.532 449.22 153.548L473.641 159.496C473.771 159.527 473.884 159.609 473.954 159.723C474.024 159.837 474.047 159.975 474.016 160.105C473.987 160.214 473.922 160.31 473.832 160.378C473.742 160.446 473.632 160.482 473.519 160.481Z" fill="#D1D3D4"/>
<path d="M434.817 232.109C434.744 232.109 434.672 232.093 434.606 232.063C434.54 232.033 434.48 231.99 434.431 231.937L420.15 215.27C420.106 215.221 420.072 215.163 420.051 215.1C420.03 215.037 420.021 214.971 420.026 214.904C420.03 214.838 420.048 214.774 420.078 214.714C420.109 214.655 420.15 214.603 420.201 214.56C420.297 214.466 420.427 214.414 420.561 214.414C420.696 214.414 420.825 214.466 420.922 214.56L435.203 231.226C435.247 231.276 435.28 231.334 435.302 231.396C435.323 231.459 435.332 231.526 435.327 231.592C435.322 231.658 435.304 231.723 435.274 231.782C435.244 231.841 435.203 231.894 435.152 231.937C435.065 232.033 434.946 232.095 434.817 232.109Z" fill="#D1D3D4"/>
<path d="M256.37 185.48C256.257 185.48 256.148 185.443 256.058 185.375C255.968 185.308 255.903 185.212 255.872 185.104C255.855 185.04 255.852 184.972 255.861 184.906C255.87 184.84 255.892 184.776 255.926 184.719C255.96 184.661 256.005 184.611 256.059 184.571C256.112 184.531 256.173 184.502 256.238 184.485L270.021 180.831C270.086 180.814 270.153 180.811 270.219 180.82C270.286 180.829 270.349 180.851 270.407 180.885C270.464 180.919 270.515 180.964 270.555 181.018C270.595 181.071 270.624 181.132 270.64 181.197C270.675 181.326 270.657 181.463 270.59 181.579C270.524 181.695 270.414 181.78 270.285 181.816L256.502 185.47L256.37 185.48Z" fill="#D1D3D4"/>
<path d="M253.652 330.65H182.939V367.732H253.652V330.65Z" fill="#6B6B6B"/>
<path d="M253.652 330.65H182.939V367.732H253.652V330.65Z" fill="url(#paint9_linear)"/>
<path d="M335.034 205.687V310.959C335.041 313.874 334.473 316.761 333.362 319.456C332.252 322.15 330.62 324.6 328.562 326.663C326.504 328.726 324.058 330.363 321.366 331.48C318.674 332.597 315.788 333.172 312.873 333.172H116.891C113.976 333.172 111.09 332.597 108.398 331.48C105.706 330.363 103.261 328.726 101.202 326.663C99.144 324.6 97.5128 322.15 96.4022 319.456C95.2917 316.761 94.7236 313.874 94.7305 310.959V205.687C94.7305 199.809 97.0653 194.173 101.221 190.017C105.377 185.861 111.014 183.526 116.891 183.526H312.831C315.745 183.521 318.631 184.09 321.325 185.201C324.018 186.312 326.466 187.944 328.528 190.002C330.591 192.06 332.227 194.505 333.343 197.196C334.459 199.888 335.034 202.773 335.034 205.687Z" fill="white"/>
<path d="M335.034 205.687V310.959C335.041 313.874 334.473 316.761 333.362 319.456C332.252 322.15 330.62 324.6 328.562 326.663C326.504 328.726 324.058 330.363 321.366 331.48C318.674 332.597 315.788 333.172 312.873 333.172H116.891C113.976 333.172 111.09 332.597 108.398 331.48C105.706 330.363 103.261 328.726 101.202 326.663C99.144 324.6 97.5128 322.15 96.4022 319.456C95.2917 316.761 94.7236 313.874 94.7305 310.959V205.687C94.7305 199.809 97.0653 194.173 101.221 190.017C105.377 185.861 111.014 183.526 116.891 183.526H312.831C315.745 183.521 318.631 184.09 321.325 185.201C324.018 186.312 326.466 187.944 328.528 190.002C330.591 192.06 332.227 194.505 333.343 197.196C334.459 199.888 335.034 202.773 335.034 205.687Z" fill="#97ECFF"/>
<path d="M335.034 303.572V310.959C335.041 313.874 334.473 316.761 333.362 319.456C332.252 322.151 330.62 324.6 328.562 326.663C326.504 328.726 324.058 330.364 321.366 331.48C318.674 332.597 315.788 333.172 312.873 333.172H116.891C113.976 333.172 111.09 332.597 108.398 331.48C105.706 330.364 103.261 328.726 101.202 326.663C99.144 324.6 97.5128 322.151 96.4022 319.456C95.2917 316.761 94.7236 313.874 94.7305 310.959V303.572H335.034Z" fill="#A5A5A5"/>
<path d="M310.144 203.962V311.409C310.141 312.989 309.512 314.504 308.395 315.621C307.277 316.739 305.762 317.368 304.182 317.371H143.962C142.382 317.368 140.867 316.739 139.749 315.621C138.632 314.504 138.003 312.989 138 311.409V203.962C137.999 203.179 138.152 202.403 138.451 201.679C138.75 200.955 139.189 200.297 139.743 199.743C140.297 199.189 140.955 198.75 141.679 198.451C142.403 198.152 143.179 197.999 143.962 198H304.182C304.965 197.999 305.741 198.152 306.465 198.451C307.189 198.75 307.847 199.189 308.401 199.743C308.955 200.297 309.394 200.955 309.693 201.679C309.992 202.403 310.146 203.179 310.144 203.962Z" fill="white"/>
<path d="M310.144 203.962V205.936H138V203.962C137.999 203.179 138.152 202.403 138.451 201.679C138.75 200.955 139.189 200.297 139.743 199.743C140.297 199.189 140.955 198.75 141.679 198.451C142.403 198.152 143.179 197.999 143.962 198H304.182C304.965 197.999 305.741 198.152 306.465 198.451C307.189 198.75 307.847 199.189 308.401 199.743C308.955 200.297 309.394 200.955 309.693 201.679C309.992 202.403 310.146 203.179 310.144 203.962Z" fill="#FFE600"/>
<path d="M143.825 203.836C145.037 203.836 146.02 202.853 146.02 201.641C146.02 200.428 145.037 199.446 143.825 199.446C142.613 199.446 141.63 200.428 141.63 201.641C141.63 202.853 142.613 203.836 143.825 203.836Z" fill="white"/>
<path d="M149.808 203.836C151.021 203.836 152.003 202.853 152.003 201.641C152.003 200.428 151.021 199.446 149.808 199.446C148.596 199.446 147.614 200.428 147.614 201.641C147.614 202.853 148.596 203.836 149.808 203.836Z" fill="white"/>
<path d="M155.781 203.836C156.993 203.836 157.976 202.853 157.976 201.641C157.976 200.428 156.993 199.446 155.781 199.446C154.569 199.446 153.586 200.428 153.586 201.641C153.586 202.853 154.569 203.836 155.781 203.836Z" fill="white"/>
<path d="M265.535 364.176H168.968V371.309H265.535V364.176Z" fill="#6B6B6B"/>
<path opacity="0.28" d="M288.564 217.375H229.734V256.704H288.564V217.375Z" fill="#6B6B6B"/>
<path opacity="0.18" d="M288.564 267.826H157.976V301.099H288.564V267.826Z" fill="#6B6B6B"/>
<defs>
<linearGradient id="paint0_linear" x1="365.477" y1="37.015" x2="365.477" y2="203.932" gradientUnits="userSpaceOnUse">
<stop stop-color="#A5A5A5"/>
<stop offset="1" stop-color="#545454"/>
</linearGradient>
<linearGradient id="paint1_linear" x1="365.487" y1="36" x2="365.487" y2="204.957" gradientUnits="userSpaceOnUse">
<stop stop-color="#A5A5A5"/>
<stop offset="1" stop-color="#545454"/>
</linearGradient>
<linearGradient id="paint2_linear" x1="365.471" y1="41.7246" x2="365.471" y2="199.222" gradientUnits="userSpaceOnUse">
<stop stop-color="#A5A5A5"/>
<stop offset="1" stop-color="#545454"/>
</linearGradient>
<linearGradient id="paint3_linear" x1="361.711" y1="42.4047" x2="361.711" y2="44.4347" gradientUnits="userSpaceOnUse">
<stop stop-color="#A5A5A5"/>
<stop offset="1" stop-color="#545454"/>
</linearGradient>
<linearGradient id="paint4_linear" x1="374.145" y1="41.4708" x2="374.145" y2="45.3684" gradientUnits="userSpaceOnUse">
<stop stop-color="#A5A5A5"/>
<stop offset="1" stop-color="#545454"/>
</linearGradient>
<linearGradient id="paint5_linear" x1="364.313" y1="77.4929" x2="364.313" y2="122.783" gradientUnits="userSpaceOnUse">
<stop stop-color="#FFF855"/>
<stop offset="1" stop-color="#FCFCFC" stop-opacity="0.85"/>
</linearGradient>
<linearGradient id="paint6_linear" x1="359.135" y1="114.823" x2="359.135" y2="154.198" gradientUnits="userSpaceOnUse">
<stop stop-color="#FFF858"/>
<stop offset="1" stop-color="#FCFCFC" stop-opacity="0.85"/>
</linearGradient>
<linearGradient id="paint7_linear" x1="376.948" y1="141.896" x2="376.948" y2="176.435" gradientUnits="userSpaceOnUse">
<stop stop-color="#FFF858"/>
<stop offset="1" stop-color="#FCFCFC" stop-opacity="0.85"/>
</linearGradient>
<linearGradient id="paint8_linear" x1="350.376" y1="66.3358" x2="350.376" y2="81.1178" gradientUnits="userSpaceOnUse">
<stop stop-color="#FFF855"/>
<stop offset="1" stop-color="#FCFCFC" stop-opacity="0.85"/>
</linearGradient>
<linearGradient id="paint9_linear" x1="217.299" y1="237.756" x2="218.491" y2="370.866" gradientUnits="userSpaceOnUse">
<stop/>
<stop offset="1" stop-opacity="0"/>
</linearGradient>
</defs>
</svg>
