<svg width="477" height="536" viewBox="0 0 477 536" fill="none" xmlns="http://www.w3.org/2000/svg">
<path d="M162.124 185.375C162.124 185.375 84.5214 194.424 56.8278 215.625C29.1341 236.826 34.5106 269.308 124.733 252.246C214.955 235.183 162.124 185.375 162.124 185.375Z" fill="#FFE600"/>
<path opacity="0.08" d="M162.124 185.375C162.124 185.375 84.5214 194.424 56.8278 215.625C29.1341 236.826 34.5106 269.308 124.733 252.246C214.955 235.183 162.124 185.375 162.124 185.375Z" fill="black"/>
<path d="M131.408 132.118C134.117 131.787 136.747 130.984 139.178 129.744C143.236 127.715 151.96 125.687 151.777 134.208C151.655 139.625 143.236 133.214 142.668 140.497C142.1 147.781 143.134 156.992 128.101 154.699C114.386 152.508 118.2 133.802 131.408 132.118Z" fill="#F4A28C"/>
<path d="M373.042 177.604C430.457 177.604 477 137.846 477 88.8022C477 39.7581 430.457 0 373.042 0C315.628 0 269.085 39.7581 269.085 88.8022C269.085 137.846 315.628 177.604 373.042 177.604Z" fill="#24285B"/>
<path opacity="0.45" d="M219.906 535.593C341.356 535.593 439.812 521.613 439.812 504.369C439.812 487.124 341.356 473.145 219.906 473.145C98.4552 473.145 0 487.124 0 504.369C0 521.613 98.4552 535.593 219.906 535.593Z" fill="#010507"/>
<path opacity="0.58" d="M311.082 469.148C311.082 469.148 290.509 463.63 285.965 444.559C285.965 444.559 317.777 437.985 318.811 470.934L311.082 469.148Z" fill="#FFE600"/>
<path opacity="0.73" d="M313.597 467.099C313.597 467.099 299.152 444.478 311.69 423.195C311.69 423.195 336.036 438.472 325.324 467.099H313.597Z" fill="#FFE600"/>
<path d="M317.29 467.1C317.29 467.1 324.776 443.098 347.723 438.473C347.723 438.473 352.085 454.014 332.993 467.1H317.29Z" fill="#FFE600"/>
<path d="M302.398 466.633L306.679 495.097H332.912L336.645 466.633H302.398Z" fill="#24285B"/>
<path d="M173.466 487.672C173.466 487.672 170.564 496.233 162.895 497.004C155.226 497.775 153.319 505.343 160.278 507.149C167.237 508.954 184.888 499.784 184.888 499.784L184.137 487.611L173.466 487.672Z" fill="#FFE600"/>
<path d="M254.132 478.116C254.132 478.116 256.384 486.88 250.379 491.729C244.373 496.578 246.95 503.902 253.767 501.67C260.584 499.439 270.342 482.031 270.342 482.031L263.688 473.145L254.132 478.116Z" fill="#FFE600"/>
<path d="M188.154 126.64C188.154 126.64 195.539 139.604 197.385 149.647C197.561 150.62 197.542 151.617 197.331 152.583C197.119 153.548 196.72 154.463 196.154 155.273C195.589 156.084 194.869 156.775 194.035 157.306C193.202 157.838 192.272 158.2 191.299 158.371C186.247 159.223 179.126 158.919 174.338 152.447L164.863 142.465C163.175 140.263 162.211 137.593 162.102 134.821C161.993 132.05 162.745 129.312 164.254 126.985C169.387 117.916 184.056 118.504 188.154 126.64Z" fill="#F4A28C"/>
<path d="M168.333 144.656L168.536 193.571L195.479 191.522L184.787 157.641L168.333 144.656Z" fill="#F4A28C"/>
<path d="M192.395 135.059L198.481 138.549C198.841 138.743 199.144 139.026 199.363 139.371C199.581 139.717 199.706 140.113 199.727 140.521C199.747 140.929 199.662 141.335 199.479 141.7C199.296 142.066 199.023 142.378 198.684 142.607L193.957 145.974L192.395 135.059Z" fill="#F4A28C"/>
<path opacity="0.31" d="M185.091 158.594C181.79 158.267 178.641 157.046 175.981 155.064C175.981 155.064 175.048 165.736 188.154 168.292L185.091 158.594Z" fill="#CE8172"/>
<path d="M376.836 33.3741C387.67 34.003 396.171 37.4318 402.339 43.5183C405.249 46.3393 407.501 49.7673 408.936 53.558C410.37 57.3488 410.951 61.4092 410.637 65.45C410.587 70.6673 409.189 75.7832 406.579 80.3011C404.023 84.1965 402.724 86.5905 398.789 89.2686C395.833 91.4313 392.666 93.2871 389.334 94.8073C387.102 95.9637 385.601 96.613 385.013 97.0187C378.926 100.285 375.497 103.41 375.173 109.05C374.97 112.661 373.753 113.615 370.283 113.412L364.501 113.067C361.032 112.864 359.936 111.789 360.139 108.177C360.87 95.8826 366.226 90.2627 375.416 84.8457C375.274 84.8457 381.28 81.5793 381.503 81.4372C383.376 80.3466 385.148 79.0905 386.798 77.6839C388.393 76.1332 389.759 74.364 390.856 72.4292C391.812 70.0995 392.4 67.6356 392.601 65.1254C393.108 56.3202 386.94 50.0105 375.396 49.341C364.258 48.6918 358.09 52.8103 353.505 61.6764C351.699 65.2065 350.522 65.734 347.114 64.3544L340.317 61.4938C337.051 60.2967 336.26 58.065 337.639 55.1029C344.862 39.5215 357.928 32.2785 376.836 33.3741ZM367.646 121.121C374.584 121.527 376.755 123.982 376.35 130.9V132.219C375.944 139.279 373.509 141.329 366.571 140.923H365.414C358.475 140.517 356.305 138.224 356.71 131.144V129.845C357.116 122.907 359.551 120.736 366.489 121.142L367.646 121.121Z" fill="#FFD200"/>
<path d="M184.868 183.508H211.872C211.872 183.508 298.361 190.954 299.741 233.722C301.12 276.49 245.185 361.924 245.185 361.924H151.98C151.98 361.924 44.7563 183.508 184.868 183.508Z" fill="#FFE600"/>
<path opacity="0.08" d="M239.301 223.212C239.301 223.212 219.784 251.048 227.94 272.716C236.096 294.384 239.727 329.097 176.874 295.48L167.744 266.346L143.195 257.906L133.315 298.097L150.235 303.838C154.125 305.098 157.367 307.832 159.263 311.455C161.16 315.077 161.561 319.299 160.379 323.214C158.127 330.112 152.568 336.929 139.543 338.248L152.061 361.843H245.266L257.622 341.737L291.584 267.137L239.301 223.212Z" fill="black"/>
<path d="M168.373 154.435C168.373 154.435 162.124 142.993 154.658 137.941C147.192 132.889 153.299 116.638 166.425 113.737C176.245 111.546 181.865 108.32 181.946 102.781C181.983 102.193 182.177 101.627 182.51 101.141C182.842 100.655 183.299 100.267 183.834 100.02C184.368 99.7727 184.959 99.6744 185.545 99.7354C186.13 99.7964 186.688 100.014 187.16 100.367C191.664 103.755 196.27 109.294 194.038 116.963C193.163 119.744 191.581 122.252 189.448 124.239C187.314 126.227 184.701 127.628 181.865 128.304L173.019 130.657C173.019 130.657 184.867 146.624 168.373 154.435Z" fill="#24285B"/>
<path d="M179.065 144.859C179.065 144.859 176.57 139.685 172.837 141.897C169.104 144.108 172.654 151.595 178.315 149.85L179.065 144.859Z" fill="#F4A28C"/>
<path d="M290.367 113.554L239.058 153.401L303.798 139.625L290.367 113.554Z" fill="#24285B"/>
<path d="M239.748 236.136C232.606 210.045 263.911 190.629 284.382 208.443C294.141 216.964 302.459 227.919 304.975 241.533C312.218 280.649 335.407 314.693 299.903 337.862C264.398 361.032 180.364 309.621 180.364 309.621L191.928 288.622C191.928 288.622 233.986 305.279 260.077 303.818C278.072 302.824 249.831 272.98 239.748 236.136Z" fill="#FFE600"/>
<path d="M186.008 259.631L160.65 253.575L150.882 294.483L176.24 300.538L186.008 259.631Z" fill="#F2F2F2"/>
<path opacity="0.3" d="M239.748 236.136C232.606 210.045 263.911 190.629 284.382 208.443C294.141 216.964 302.459 227.919 304.975 241.533C312.218 280.649 335.407 314.693 299.903 337.862C264.398 361.032 180.364 309.621 180.364 309.621L191.928 288.622C191.928 288.622 233.986 305.279 260.077 303.818C278.072 302.824 249.831 272.98 239.748 236.136Z" fill="white"/>
<path d="M190.386 291.26C189.434 287.268 187.542 283.56 184.868 280.446C180.323 275.009 178.781 272.595 172.512 272.717C166.243 272.838 165.614 295.866 182.92 304.813L190.386 291.26Z" fill="#F4A28C"/>
<path d="M245.185 361.924C245.185 361.924 226.52 439.426 263.891 472.009L250.724 484.324C250.724 484.324 202.275 456.204 195.519 378.946L245.185 361.924Z" fill="#24285B"/>
<path d="M120.31 140.882L128.101 154.658L71.1312 244.434C62.326 258.291 40.3943 252.549 40.1914 236.136C40.1914 228.568 42.484 219.459 49.24 208.706C73.7078 169.631 120.31 140.882 120.31 140.882Z" fill="#FFE600"/>
<path d="M114.506 114.469L113.968 118.491L135.103 121.318L135.641 117.296L114.506 114.469Z" fill="#C9C9C9"/>
<path d="M130.878 88.8227L127.758 91.4163L141.387 107.815L144.507 105.222L130.878 88.8227Z" fill="#C9C9C9"/>
<path d="M157.585 82.2219L155.615 103.454L159.656 103.829L161.625 82.5967L157.585 82.2219Z" fill="#C9C9C9"/>
<path d="M151.98 361.924C151.98 361.924 132.828 434.272 170.585 487.611L185.841 486.88C185.841 486.88 163.727 414.714 196.574 388.319L245.266 361.944L151.98 361.924Z" fill="#24285B"/>
</svg>
