<svg width="438" height="541" viewBox="0 0 438 541" fill="none" xmlns="http://www.w3.org/2000/svg">
<path opacity="0.18" d="M142.037 60.3535C127.004 87.6674 121.425 121.071 98.8863 142.694C87.4129 153.769 72.5846 160.47 59.1835 169.099C31.5659 186.867 9.23077 214.282 2.4283 246.369C-4.37417 278.456 6.19098 314.909 32.3814 334.604C54.8185 351.463 85.791 355.115 106.3 374.31C144.474 409.845 132.25 483.964 177.773 509.452C200.618 522.242 230.163 516.255 251.794 501.435C273.424 486.614 288.67 464.574 303.368 442.942C329.46 404.763 355.551 366.62 381.643 328.515C393.83 310.738 406.221 292.47 410.79 271.45C416.675 244.238 408.01 214.384 388.445 194.587C362.357 168.284 318.595 158.441 304.48 124.148C297.483 106.983 299.911 87.5932 300.931 69.1121C306.612 -35.2959 177.263 -3.82056 142.037 60.3535Z" fill="#FFE600"/>
<path d="M220.719 38.2114C222.248 38.7212 231.989 55.6823 231.989 55.6823L227.726 54.8666C227.726 54.8666 224.945 47.0442 216.456 47.0442C216.456 47.2481 217.309 37.0992 220.719 38.2114Z" fill="url(#paint0_linear)"/>
<path d="M349.16 447.011C349.16 447.011 326.037 452.785 321.932 443.239C321.698 442.725 321.533 442.182 321.44 441.626C319.309 429.846 325.703 378.675 325.703 378.675C325.703 378.675 271.284 341.305 247.855 347.7C228.031 353.085 130.359 453.916 99.9986 485.493C97.3472 488.259 93.9086 490.143 90.1499 490.887C86.3912 491.632 82.4944 491.201 78.9888 489.654C76.9399 488.739 75.117 487.384 73.6489 485.687C72.1808 483.989 71.1033 481.99 70.4925 479.831C69.8817 477.671 69.7525 475.404 70.114 473.189C70.4756 470.974 71.319 468.865 72.5848 467.012L173.751 320.961L179.413 312.777L271.302 293.314C271.302 293.314 366.231 332.815 375.879 348.859C385.526 364.902 349.16 447.011 349.16 447.011Z" fill="#FFE600"/>
<path d="M278.475 276.325C278.373 285.259 277.15 294.5 272.386 302.007C264.157 314.983 247.605 319.617 232.582 323.13C223.138 325.364 213.49 327.597 203.75 326.68C194.01 325.762 184.232 321.239 179.441 312.777C179.425 312.74 179.403 312.706 179.376 312.675C176.438 307.392 175.724 301.201 175.113 295.204C171.869 265.546 168.625 235.331 170.933 205.672C171.52 197.819 172.554 190.005 174.028 182.269C174.473 179.897 174.955 177.543 175.521 175.188C177.828 165.123 183.064 148.718 191.748 138.68C196.465 133.221 202.193 129.653 209.023 130.005C217.559 130.515 226.187 131.321 234.713 132.443C240.904 133.37 247.503 134.473 252.275 138.634C260.301 145.539 260.199 157.829 260.709 168.487C262.451 204.94 278.8 239.817 278.475 276.325Z" fill="#FFE600"/>
<path d="M205.39 132.239C205.594 137.012 223.064 147.8 226.706 145.975C232.712 146.735 234.723 145.131 235.742 140.766C237.16 134.676 237.67 127.975 234.926 122.229C232.795 117.66 228.736 114.11 224.167 111.876C219.394 109.541 204.705 104.156 200.812 110.152C197.847 114.694 205.261 126.548 205.39 132.239Z" fill="url(#paint1_linear)"/>
<path d="M228.133 80.2434C235.647 80.2434 241.738 73.5626 241.738 65.3214C241.738 57.0801 235.647 50.3993 228.133 50.3993C220.619 50.3993 214.528 57.0801 214.528 65.3214C214.528 73.5626 220.619 80.2434 228.133 80.2434Z" fill="url(#paint2_linear)"/>
<path d="M227.215 52.4291C228.754 54.4324 230.051 56.61 231.08 58.9169C235.853 68.4633 240.616 77.9078 245.389 87.4542C247.623 92.0235 250.023 96.9913 249.05 102.07C248.466 104.898 247.102 107.505 245.111 109.596C242.105 113.057 238.254 115.681 233.934 117.215C227.336 119.55 219.829 119.143 213.129 116.909C206.428 114.675 200.432 110.81 194.955 106.343C190.59 102.793 186.419 98.7338 183.982 93.5528C181.952 89.0854 181.646 71.9297 182.768 68.4726C185.798 58.2218 193.509 53.5227 202.749 49.6856C211.275 46.2378 220.413 44.0041 227.215 52.4291Z" fill="url(#paint3_linear)"/>
<path d="M204.677 18.6181C208.253 15.3381 212.695 13.1538 217.476 12.3249C221.943 11.5093 226.817 11.9171 230.673 14.4566C234.528 16.9962 237.067 21.6674 236.057 26.1348C234.426 34.1519 224.009 36.6914 219.375 43.4944C217.448 46.2749 216.595 49.5837 215.214 52.633C212.267 58.5184 205.771 63.1896 199.274 61.7716C195.817 60.956 191.86 58.7223 189.079 60.956C186.948 62.6891 188.366 66.035 187.56 68.6765C180.655 92.2367 199.339 104.313 198.681 105.75C197.559 108.53 173.602 109.198 170.655 108.688C167.708 108.178 165.28 106.25 163.241 104.119C157.458 98.3352 153.603 89.5025 156.439 81.782C157.56 78.7419 159.59 75.9985 159.692 72.7453C159.794 69.798 158.172 67.1843 157.152 64.4038C153.093 53.9398 157.866 40.8436 167.615 35.366C170.627 33.8155 173.788 32.5734 177.05 31.6587C182.333 30.0367 187.615 28.7114 192.888 27.1913C197.976 25.625 200.822 22.0659 204.677 18.6181Z" fill="#3F3D56"/>
<path d="M202.953 98.4279C205.39 107.159 201.535 115.788 194.325 117.817C187.114 119.847 179.394 114.369 176.957 105.639C174.52 96.9079 178.384 88.2698 185.595 86.24C192.805 84.2103 200.516 89.6693 202.953 98.4279Z" fill="url(#paint4_linear)"/>
<path d="M191.989 92.7372L179.292 95.8884C143.556 35.2734 178.69 18.1084 181.73 16.6903C181.832 16.6903 181.832 16.5884 181.934 16.5884C179.389 18.3235 177.272 20.615 175.743 23.2894C162.546 46.1081 191.989 92.7372 191.989 92.7372Z" fill="url(#paint5_linear)"/>
<path d="M201.739 22.3718L200.414 23.0855L192.897 27.145C184.473 22.0103 178.894 22.2699 175.604 23.3913C176.493 21.852 177.601 20.4502 178.894 19.2298C179.836 18.3018 180.853 17.4524 181.934 16.6903C190.432 12.6308 201.739 22.3718 201.739 22.3718Z" fill="url(#paint6_linear)"/>
<path d="M200.414 23.0855L192.897 27.145C184.473 22.0103 178.894 22.2699 175.604 23.3913C176.493 21.852 177.601 20.4502 178.894 19.2298C179.496 18.7201 180.21 18.1084 180.924 17.5986C188.634 13.9469 198.588 21.5655 200.414 23.0855Z" fill="url(#paint7_linear)"/>
<path d="M191.479 150.006C192.999 152.787 191.989 156.198 190.97 159.145C189.116 164.428 185.539 176.412 181.331 187.08C178.088 195.282 174.464 202.697 170.951 205.672C170.766 205.83 170.59 205.978 170.405 206.108C163.825 185.81 151.869 188.692 139.293 185.949C128.024 183.511 102.028 181.176 90.6563 179.248C72.3805 176.208 62.6402 177.83 63.1499 161.888C63.4465 150.006 73.0941 139.959 83.8539 134.778C94.6136 129.597 106.699 127.975 118.274 124.926C130.257 121.784 141.221 113.35 153 110.412C162.75 108.076 168.94 114.675 173.389 124.416C174.023 125.525 174.273 126.812 174.102 128.077C173.664 129.311 172.846 130.375 171.767 131.117C156.457 144.353 148.728 141.989 129.543 148.18C145.91 146.457 168.069 139.996 191.767 138.68C194.528 138.514 197.309 138.43 200.108 138.43C202.341 138.43 190.432 147.977 191.479 150.006Z" fill="#FFE600"/>
<path d="M394.544 59.9457C394.238 61.7994 392.922 63.1896 391.495 64.515C377.89 77.7131 364.183 90.9113 350.578 104.007C328.243 125.64 305.908 147.161 283.573 168.793C274.935 177.135 264.889 186.051 252.804 185.847C250.265 174.781 243.666 155.085 246.409 143.917C246.863 142.063 243.379 136.373 244.556 134.825C244.797 134.491 254.129 133.611 256.919 131.822C262.581 128.17 269.273 125.251 273.943 122.183C297.691 106.628 319.796 88.7001 339.92 68.6765C349.966 58.6203 360.216 47.6651 372.598 41.3812C374.32 40.5012 376.09 39.7183 377.899 39.0363C380.045 38.2289 382.247 37.5814 384.488 37.0992C387.435 43.0866 390.379 49.077 393.32 55.0706C394.034 56.5906 394.85 58.2218 394.544 59.9457Z" fill="#FFE600"/>
<path d="M389.687 29.9904C390.299 24.003 389.891 17.5986 392.468 12.223C393.07 10.8976 394.395 9.37758 395.813 9.78539C397.036 10.0912 397.546 11.6391 397.843 12.8254C398.77 17.9045 397.945 23.4933 400.484 28.0626C406.378 19.8323 412.161 11.5093 418.093 3.28827C419.103 1.86095 420.521 0.340937 422.152 0.850697C421.846 8.56197 417.787 15.5688 413.922 22.1679C415.553 20.546 418.491 21.6674 419.483 23.6972C420.474 25.727 419.891 28.1645 418.871 30.185C419.753 29.569 420.836 29.3115 421.9 29.4647C422.965 29.618 423.931 30.1704 424.603 31.0101C425.275 31.8497 425.603 32.9136 425.519 33.9859C425.436 35.0582 424.948 36.0586 424.154 36.7841L437.657 32.8265C437.759 35.2641 435.423 36.8861 433.292 38.1002C418.065 46.933 402.625 55.8769 385.572 59.9365C382.421 54.9594 378.566 49.1759 382.792 44.5047C386.722 39.9446 389.057 36.3856 389.687 29.9904Z" fill="url(#paint8_linear)"/>
<path d="M401.448 33.1324C401.211 33.603 401.151 34.1434 401.281 34.6542C401.41 35.1651 401.72 35.612 402.152 35.9129C402.691 36.1699 403.29 36.2756 403.885 36.2187C406.601 36.1426 409.239 35.2974 411.494 33.7812C408.658 35.9129 405.711 38.2485 404.59 41.6037C404.466 41.8195 404.401 42.0639 404.401 42.3127C404.401 42.5614 404.466 42.8058 404.59 43.0217C404.847 43.3394 405.208 43.5561 405.609 43.6334C408.955 44.2451 412.004 41.7056 415.053 40.0836C416.98 39.0641 419.01 38.3505 420.938 37.2383C422.898 36.2561 424.393 34.5413 425.099 32.4651C425.252 32.0693 425.286 31.6374 425.197 31.2225C425.109 30.8076 424.9 30.4277 424.598 30.1294C424.233 29.9451 423.826 29.8577 423.417 29.8755C423.009 29.8934 422.611 30.0159 422.263 30.2314C420.03 31.0377 417.796 31.8533 415.562 32.7709C416.933 31.8072 418.072 30.5502 418.896 29.0912C419.72 27.6323 420.208 26.0081 420.326 24.3367C420.381 23.8118 420.278 23.2824 420.03 22.8167C418.176 20.1752 411.902 24.0401 410.076 25.3562C408.862 26.2831 407.741 27.386 406.526 28.4055C404.895 29.6846 402.356 31.1026 401.448 33.1324Z" fill="url(#paint9_linear)"/>
<path d="M171.582 91.7269C170.164 91.7269 169.348 93.2469 168.802 94.5723C168.028 96.8892 167.75 99.3427 167.986 101.774C168.11 103.473 168.758 105.092 169.84 106.408C173.389 110.375 178.876 105.481 178.876 101.236C178.894 98.4279 174.724 91.625 171.582 91.7269Z" fill="url(#paint10_linear)"/>
<path d="M319.513 467.92C318.756 471.048 318.345 474.249 318.289 477.467C318.265 478.068 318.406 478.664 318.697 479.191C319.097 479.757 319.664 480.185 320.319 480.414C327.352 483.749 335.414 484.185 342.765 481.628C343.647 481.417 344.433 480.918 344.999 480.21C345.295 479.682 345.451 479.087 345.451 478.481C345.451 477.876 345.295 477.281 344.999 476.753C344.413 475.736 343.766 474.754 343.062 473.815C340.93 470.358 341.134 466.094 341.542 462.035C342.068 457.156 342.847 452.309 343.877 447.511C344.183 446.195 326.417 444.165 324.081 446.909C322.562 448.633 322.562 453.1 322.154 455.25C321.338 459.477 320.421 463.657 319.513 467.92Z" fill="url(#paint11_linear)"/>
<path d="M326.519 466.196C324.474 465.359 322.321 464.813 320.124 464.574C317.891 464.472 315.555 465.288 314.434 467.216C313.964 468.056 313.686 468.99 313.618 469.95C312.2 477.569 310.782 485.187 309.253 492.898C308.949 493.927 308.949 495.021 309.253 496.05C309.763 497.468 311.283 498.385 312.812 498.895C317.585 500.619 322.756 500.749 327.733 500.823L379.632 501.75C380.399 501.815 381.17 501.674 381.865 501.342C383.719 500.322 382.987 497.477 381.764 495.855C377.704 489.97 370.642 487.124 364.201 483.973C360.792 482.424 357.609 480.419 354.739 478.013C352.302 475.78 350.782 471.72 347.937 469.987C345.703 468.671 343.062 469.06 340.624 468.977C335.83 468.608 331.095 467.674 326.519 466.196Z" fill="#FFE600"/>
<path d="M322.858 511.38C327.223 511.583 331.496 513.233 335.833 513.919C340.414 514.479 345.04 514.582 349.642 514.225C356.639 513.817 363.747 513.511 370.753 513.113C373.599 513.011 376.648 512.807 379.094 511.259C381.541 509.711 383.255 506.625 382.032 504.048C380.716 501.212 376.963 500.498 373.812 500.295C355.74 498.978 337.464 496.745 319.29 496.235C313.905 496.133 305.583 497.347 306.195 504.66C307.122 512.909 317.279 511.074 322.858 511.38Z" fill="#FFE600"/>
<path d="M349.466 470.599C349.136 469.833 349.087 468.975 349.327 468.176C349.568 467.377 350.083 466.689 350.782 466.233C351.5 465.804 352.343 465.632 353.173 465.743C354.002 465.854 354.77 466.242 355.351 466.845C356.574 468.263 356.574 470.293 356.667 472.128C356.979 475.841 358.396 479.376 360.735 482.277" fill="#FFE600"/>
<path d="M71.491 477.698C67.2279 485.011 60.101 493.714 54.2068 499.701C57.9139 506.189 66.8016 508.136 73.6689 505.494C80.5362 502.853 85.652 496.763 89.0996 490.164C81.5835 488.032 77.3389 482.749 71.491 477.698Z" fill="url(#paint12_linear)"/>
<path d="M84.5122 503.909C83.5057 505.653 82.2989 507.274 80.9164 508.738C75.226 515.041 69.5449 521.436 63.8546 527.729C61.723 530.065 59.5914 532.502 56.6443 533.522C54.1143 534.448 51.371 534.226 48.6278 534.022C38.2109 533.281 27.7941 532.465 17.2938 531.724L14.1057 531.483C12.9099 531.482 11.7303 531.206 10.6581 530.676C7.71101 528.952 8.22073 524.578 9.63868 521.538C11.1958 518.258 13.4165 515.337 16.1603 512.96C18.9041 510.583 22.1113 508.802 25.5791 507.728C30.4539 506.208 35.7735 506.106 40.2035 503.872C43.8549 502.018 46.4962 499.099 49.3414 496.457C53.4006 492.602 53.9752 491.174 59.2856 493.204C61.204 493.816 85.5873 500.165 85.5873 498.71C85.8124 500.514 85.4344 502.342 84.5122 503.909Z" fill="#FFE600"/>
<path d="M20.8339 538.184C32.0014 539.611 43.2709 541.029 54.4385 540.964C57.4089 541.088 60.3757 540.641 63.1779 539.648C64.5684 539.124 65.8016 538.252 66.7603 537.117C67.719 535.981 68.3713 534.619 68.6551 533.16C68.859 531.631 68.3492 529.907 66.9313 529.397C66.5333 529.28 66.1225 529.211 65.708 529.193C49.5729 527.673 33.5306 526.051 17.3863 524.559C11.8999 524.049 4.68963 525.263 4.4116 532.27C4.1521 538.693 16.2001 537.581 20.8339 538.184Z" fill="#FFE600"/>
<path d="M161.017 110.987C164.27 111.394 167.115 108.855 168.533 105.917C169.951 102.979 170.256 99.7162 171.313 96.6484C172.951 92.3168 176.015 88.6719 180 86.3135C183.986 83.9551 188.655 83.0238 193.24 83.6727C193.501 83.685 193.755 83.7555 193.984 83.879C194.213 84.0025 194.412 84.1759 194.566 84.3864C194.871 84.9981 194.362 85.6005 193.852 86.1103C191.64 88.2218 188.964 89.7865 186.039 90.6796C191.6 88.7518 198.087 88.0381 203.907 89.4654C203.602 90.6796 202.378 91.4952 201.368 92.1069C196.734 94.943 192.1 97.6679 187.467 100.532C192.239 97.8904 197.42 95.045 202.897 95.3508C203.509 96.4723 202.388 97.6864 201.377 98.4001C197.819 101.042 194.371 103.683 190.812 106.315C193.371 104.757 196.259 103.82 199.246 103.581C197.392 107.437 192.443 108.447 189.904 111.923C189.089 113.289 188.376 114.714 187.772 116.186C185.522 121.077 181.598 125.002 176.707 127.253C175.78 127.66 174.677 127.966 173.862 127.354C173.477 126.996 173.196 126.542 173.046 126.038C170.562 119.949 166.503 114.369 161.017 110.987Z" fill="url(#paint13_linear)"/>
<path d="M223.573 146.642C223.573 146.642 225.427 166.458 224.583 174.178C223.74 181.899 234.834 259.058 235.705 283.934C236.576 308.81 230.524 307.105 230.524 307.105C215.195 314.825 179.348 312.796 179.348 312.796L175.391 319.599C175.391 319.599 200.775 322.639 231.923 315.632C249.322 311.613 266.215 305.653 282.284 297.864L275.482 295.019C275.482 295.019 243.703 306.095 230.505 307.068" stroke="white" stroke-width="0.577527" stroke-miterlimit="10"/>
<path d="M378.566 37.8129C378.566 37.8129 371.968 48.0637 376.231 57.5081C380.494 66.9526 388.853 66.9526 388.853 66.9526" stroke="white" stroke-width="0.504023" stroke-miterlimit="10"/>
<path d="M231.006 303.314C225.974 315.048 181.405 312.879 179.459 312.777C179.443 312.74 179.421 312.706 179.394 312.675C176.456 307.392 175.743 301.201 175.131 295.204C171.887 265.546 168.644 235.331 170.951 205.672C170.766 205.83 170.59 205.978 170.405 206.108C163.825 185.81 151.869 188.692 139.293 185.949C128.024 183.511 102.028 181.176 90.6563 179.248C72.3805 176.208 62.6402 177.83 63.1499 161.888C63.1499 161.888 148.097 176.366 164.112 179.229C167.543 179.803 170.883 180.825 174.047 182.269C176.707 183.49 179.164 185.113 181.331 187.08C185.27 190.667 187.819 194.949 190.414 199.24C195.548 207.822 196.697 269.568 200.701 289.578C204.704 309.589 231.006 303.314 231.006 303.314Z" fill="url(#paint14_linear)"/>
<path d="M99.4609 150.516C103.854 146.809 109.526 145.02 114.984 143.185C131.549 137.618 147.642 130.738 163.111 122.609C163.939 122.109 164.849 121.76 165.799 121.58C169.571 121.135 171.684 125.742 172.564 129.44C168.626 130.367 165.901 133.824 162.806 136.447C153.788 144.056 142.37 143.713 131.638 146.744C127.088 148.023 123.511 149.163 118.664 149.441L108.821 149.988C107.023 150.09 100.758 149.413 99.4609 150.516Z" fill="url(#paint15_linear)"/>
<path d="M372.598 41.3812L372.227 53.4301C372.227 53.4301 276.362 144.353 238.624 140.923C231.108 140.237 245.427 135.798 244.537 134.825C244.435 134.704 256.9 131.822 256.9 131.822C262.563 128.17 269.254 125.251 273.925 122.183C297.678 106.629 319.79 88.7011 339.92 68.6765C349.966 58.6204 360.216 47.6652 372.598 41.3812Z" fill="url(#paint16_linear)"/>
<path d="M191.767 138.68C191.767 138.68 204.417 149.802 218.421 147.782C232.424 145.761 223.574 146.642 223.574 146.642C223.574 146.642 204.417 138.059 204.417 130.061C204.417 122.062 191.767 138.68 191.767 138.68Z" fill="#FFE600"/>
<path d="M244.537 134.825C244.537 134.825 247.169 142.99 234.157 148.551C221.145 154.112 229.162 150.247 229.162 150.247C229.162 150.247 239.727 131.182 235.575 124.296C231.423 117.41 244.537 134.825 244.537 134.825Z" fill="#FFE600"/>
<path d="M244.537 134.825C244.537 134.825 244.824 137.299 235.575 143.593L230.432 146.262C230.432 146.262 239.699 131.182 235.575 124.342C231.451 117.502 244.537 134.825 244.537 134.825Z" fill="url(#paint17_linear)"/>
<path d="M191.767 138.68C191.767 138.68 204.38 149.469 218.421 147.782C223.194 147.207 223.981 145.993 223.981 145.993C223.981 145.993 204.436 138.059 204.436 130.061C204.436 122.062 191.767 138.68 191.767 138.68Z" fill="url(#paint18_linear)"/>
<path d="M337.918 373.068C337.065 385.117 331.051 443.396 331.051 443.396L321.931 443.239C321.698 442.725 321.533 442.182 321.44 441.626C319.308 429.846 325.703 378.675 325.703 378.675C325.703 378.675 271.283 341.305 247.855 347.7C247.855 347.7 261.617 337.042 272.766 338.756C283.915 340.471 331.95 361.056 331.95 361.056C331.95 361.056 338.771 361.056 337.918 373.068Z" fill="url(#paint19_linear)"/>
<path d="M207.559 320.748C198.986 324.177 173.269 354.188 151.814 379.917C131.74 404.015 77.1073 470.506 70.2584 478.838C70.0356 477.793 69.9238 476.728 69.9248 475.659C69.9241 472.574 70.8543 469.56 72.5939 467.012L173.751 320.961C187.17 322.305 207.559 320.748 207.559 320.748Z" fill="url(#paint20_linear)"/>
<path d="M84.512 503.909C83.5055 505.653 82.2987 507.274 80.9162 508.738C75.2258 515.04 69.5447 521.436 63.8544 527.729C61.7228 530.064 59.5913 532.502 56.6441 533.522C54.1141 534.448 51.3708 534.226 48.6276 534.022C38.2107 533.281 27.7939 532.465 17.2936 531.724C17.1287 530.9 17.0881 530.057 17.1731 529.221C17.2089 528.121 17.5701 527.057 18.2111 526.163C18.7607 525.538 19.4497 525.053 20.2222 524.744C22.8727 523.567 25.8662 523.502 28.767 523.475L48.572 523.215C51.1021 523.215 53.7433 523.122 55.9861 521.973C57.0754 521.374 58.0949 520.656 59.0259 519.832C61.4973 517.799 63.9687 515.763 66.4401 513.724C70.6939 510.23 75.0034 506.68 80.0543 504.456C81.4277 503.749 83.0084 503.555 84.512 503.909Z" fill="url(#paint21_linear)"/>
<path d="M316.473 470.599C316.672 470.001 317.079 469.495 317.62 469.172C318.16 468.848 318.799 468.73 319.42 468.838C321.512 468.79 323.597 469.103 325.583 469.765C330.217 471.563 332.997 476.391 334.851 480.998C336.435 484.779 337.89 488.839 341.032 491.462C342.943 492.872 345.039 494.014 347.26 494.854C351.9 496.917 356.363 499.357 360.605 502.148C360.911 502.352 361.254 502.649 361.171 503.001C361.087 503.353 360.809 503.418 360.55 503.52C358.675 504.111 356.713 504.377 354.748 504.308C350.891 504.253 347.039 503.991 343.21 503.52C336.599 502.797 330.007 501.932 323.433 500.925C320.311 500.536 317.236 499.843 314.248 498.858C313.4 498.594 312.614 498.159 311.941 497.579C311.129 496.719 310.624 495.614 310.504 494.437C310.321 492.283 310.506 490.115 311.051 488.023C311.691 484.835 312.21 481.6 312.905 478.44C313.498 476.16 314.777 472.286 316.473 470.599Z" fill="url(#paint22_linear)"/>
<path d="M318.252 502.436C316.797 501.968 315.276 501.739 313.748 501.759C312.988 501.79 312.247 502.007 311.591 502.392C310.935 502.776 310.383 503.317 309.985 503.965C309.059 505.754 309.985 508.089 311.644 509.276C313.368 510.354 315.389 510.86 317.418 510.721C319.433 510.579 321.457 510.595 323.47 510.768C325.592 511.101 327.557 512.047 329.624 512.621C331.911 513.171 334.25 513.482 336.602 513.548C348.576 514.234 360.985 514.29 372.069 509.702C372.545 509.57 372.953 509.262 373.209 508.84C373.311 508.52 373.292 508.175 373.157 507.868C373.023 507.561 372.781 507.314 372.477 507.172C371.859 506.915 371.188 506.813 370.522 506.875C362.533 507.014 354.489 507.579 346.518 507.033C336.977 506.359 327.516 504.82 318.252 502.436Z" fill="url(#paint23_linear)"/>
<path d="M56.1343 509.025C60.6388 507.638 64.6942 505.079 67.8858 501.611C68.0731 501.452 68.1898 501.225 68.2101 500.98C68.1843 500.851 68.1313 500.729 68.0546 500.622C67.9779 500.515 67.8793 500.425 67.7653 500.359C64.3544 497.756 60.3746 496 56.1529 495.234C55.3992 495.037 54.605 495.06 53.8637 495.299C53.1208 495.702 52.4999 496.297 52.0658 497.023C49.7428 500.182 46.9558 502.973 43.799 505.299C43.2893 505.679 42.7055 506.171 42.7796 506.801C42.8789 507.224 43.1422 507.591 43.5118 507.82C45.2228 509.141 47.2602 509.972 49.4065 510.225C51.5529 510.478 53.7276 510.143 55.6987 509.257" fill="url(#paint24_linear)"/>
<path d="M348.974 181.593L397.509 156.568L395.331 201.538C395.331 201.538 390.114 216.507 383.154 210.936C376.194 205.366 391.161 195.977 391.161 195.977L391.504 174.401L354.276 192.492L354.98 218.592C354.98 218.592 349.419 236.332 343.497 230.419C337.575 224.505 349.753 212.679 349.753 212.679L348.974 181.593Z" fill="#FFE600"/>
<path d="M87.2553 237.175L97.1624 196.988C97.1624 196.988 113.168 209.861 110.74 219.232C108.311 228.602 99.2569 231.058 99.2569 231.058C99.2569 231.058 104.122 223.059 103.084 220.279C102.046 217.498 96.3005 212.623 96.3005 212.623L88.4878 245.378C88.4878 245.378 78.0524 261.375 73.5298 249.901C69.0072 238.426 87.2553 237.175 87.2553 237.175Z" fill="#FFE600"/>
<defs>
<linearGradient id="paint0_linear" x1="216.484" y1="46.9051" x2="232.016" y2="46.9051" gradientUnits="userSpaceOnUse">
<stop offset="0.01"/>
<stop offset="1" stop-opacity="0"/>
</linearGradient>
<linearGradient id="paint1_linear" x1="200.126" y1="126.771" x2="236.984" y2="126.771" gradientUnits="userSpaceOnUse">
<stop stop-color="#ECC4D7"/>
<stop offset="0.42" stop-color="#EFD4D1"/>
<stop offset="1" stop-color="#F2EAC9"/>
</linearGradient>
<linearGradient id="paint2_linear" x1="11451.3" y1="-15173.7" x2="12082.9" y2="-15173.7" gradientUnits="userSpaceOnUse">
<stop offset="0.01"/>
<stop offset="1" stop-opacity="0"/>
</linearGradient>
<linearGradient id="paint3_linear" x1="25171.6" y1="36609.4" x2="30030.5" y2="36609.4" gradientUnits="userSpaceOnUse">
<stop stop-color="#ECC4D7"/>
<stop offset="0.42" stop-color="#EFD4D1"/>
<stop offset="1" stop-color="#F2EAC9"/>
</linearGradient>
<linearGradient id="paint4_linear" x1="10641.4" y1="15832.7" x2="11127.1" y2="15832.7" gradientUnits="userSpaceOnUse">
<stop offset="0.01"/>
<stop offset="1" stop-opacity="0"/>
</linearGradient>
<linearGradient id="paint5_linear" x1="10233" y1="42447.7" x2="11116.9" y2="42447.7" gradientUnits="userSpaceOnUse">
<stop offset="0.01"/>
<stop offset="1" stop-opacity="0"/>
</linearGradient>
<linearGradient id="paint6_linear" x1="9717.7" y1="6569.1" x2="10451" y2="6569.1" gradientUnits="userSpaceOnUse">
<stop offset="0.01"/>
<stop offset="1" stop-opacity="0"/>
</linearGradient>
<linearGradient id="paint7_linear" x1="9233.82" y1="6039.22" x2="9895.25" y2="6039.22" gradientUnits="userSpaceOnUse">
<stop offset="0.01"/>
<stop offset="1" stop-opacity="0"/>
</linearGradient>
<linearGradient id="paint8_linear" x1="33646.6" y1="33323.3" x2="37118.5" y2="33323.3" gradientUnits="userSpaceOnUse">
<stop stop-color="#ECC4D7"/>
<stop offset="0.42" stop-color="#EFD4D1"/>
<stop offset="1" stop-color="#F2EAC9"/>
</linearGradient>
<linearGradient id="paint9_linear" x1="15025.5" y1="12245.4" x2="15643.6" y2="12245.4" gradientUnits="userSpaceOnUse">
<stop stop-color="#ECC4D7"/>
<stop offset="0.42" stop-color="#EFD4D1"/>
<stop offset="1" stop-color="#F2EAC9"/>
</linearGradient>
<linearGradient id="paint10_linear" x1="4082.2" y1="7972.06" x2="4211.88" y2="7972.06" gradientUnits="userSpaceOnUse">
<stop stop-color="#ECC4D7"/>
<stop offset="0.42" stop-color="#EFD4D1"/>
<stop offset="1" stop-color="#F2EAC9"/>
</linearGradient>
<linearGradient id="paint11_linear" x1="14416.7" y1="4017.63" x2="15211.5" y2="4017.63" gradientUnits="userSpaceOnUse">
<stop stop-color="#ECC4D7"/>
<stop offset="0.42" stop-color="#EFD4D1"/>
<stop offset="1" stop-color="#F2EAC9"/>
</linearGradient>
<linearGradient id="paint12_linear" x1="8217.38" y1="2350.83" x2="9532.49" y2="2350.83" gradientUnits="userSpaceOnUse">
<stop stop-color="#ECC4D7"/>
<stop offset="0.42" stop-color="#EFD4D1"/>
<stop offset="1" stop-color="#F2EAC9"/>
</linearGradient>
<linearGradient id="paint13_linear" x1="15139.3" y1="21394.3" x2="17119.6" y2="21394.3" gradientUnits="userSpaceOnUse">
<stop stop-color="#ECC4D7"/>
<stop offset="0.42" stop-color="#EFD4D1"/>
<stop offset="1" stop-color="#F2EAC9"/>
</linearGradient>
<linearGradient id="paint14_linear" x1="228.847" y1="163.844" x2="-337.211" y2="642.949" gradientUnits="userSpaceOnUse">
<stop stop-opacity="0"/>
<stop offset="0.99"/>
</linearGradient>
<linearGradient id="paint15_linear" x1="23558.3" y1="4164.01" x2="23646.4" y2="6380.53" gradientUnits="userSpaceOnUse">
<stop stop-opacity="0"/>
<stop offset="0.99"/>
</linearGradient>
<linearGradient id="paint16_linear" x1="68100.1" y1="8730.7" x2="75530.7" y2="31814.6" gradientUnits="userSpaceOnUse">
<stop stop-opacity="0"/>
<stop offset="0.99"/>
</linearGradient>
<linearGradient id="paint17_linear" x1="6286.72" y1="3370.16" x2="6700.55" y2="4980.51" gradientUnits="userSpaceOnUse">
<stop stop-opacity="0"/>
<stop offset="0.99"/>
</linearGradient>
<linearGradient id="paint18_linear" x1="12825.6" y1="2954.32" x2="13412.6" y2="4811.13" gradientUnits="userSpaceOnUse">
<stop stop-opacity="0"/>
<stop offset="0.99"/>
</linearGradient>
<linearGradient id="paint19_linear" x1="51042.8" y1="41630.8" x2="5649.18" y2="59345" gradientUnits="userSpaceOnUse">
<stop stop-opacity="0"/>
<stop offset="0.99"/>
</linearGradient>
<linearGradient id="paint20_linear" x1="64778.7" y1="57192.2" x2="-112991" y2="127433" gradientUnits="userSpaceOnUse">
<stop stop-opacity="0"/>
<stop offset="0.99"/>
</linearGradient>
<linearGradient id="paint21_linear" x1="15389.7" y1="17518.3" x2="16383.4" y2="19879.7" gradientUnits="userSpaceOnUse">
<stop stop-opacity="0"/>
<stop offset="0.99"/>
</linearGradient>
<linearGradient id="paint22_linear" x1="333.738" y1="460.144" x2="339.17" y2="559.63" gradientUnits="userSpaceOnUse">
<stop stop-opacity="0"/>
<stop offset="0.86" stop-opacity="0.66"/>
<stop offset="0.99"/>
</linearGradient>
<linearGradient id="paint23_linear" x1="35086.1" y1="6874" x2="35073.9" y2="7512.51" gradientUnits="userSpaceOnUse">
<stop stop-opacity="0"/>
<stop offset="0.86" stop-opacity="0.66"/>
<stop offset="0.99"/>
</linearGradient>
<linearGradient id="paint24_linear" x1="5857.65" y1="9035.84" x2="6134.71" y2="7952.53" gradientUnits="userSpaceOnUse">
<stop stop-opacity="0"/>
<stop offset="0.99"/>
</linearGradient>
</defs>
</svg>
