<svg width="20" height="30" viewBox="0 0 20 30" fill="none" xmlns="http://www.w3.org/2000/svg">
<path d="M3.44437 0C2.53086 0 1.65478 0.364697 1.00883 1.01386C0.362888 1.66303 0 2.54348 0 3.46154V26.5385C0 27.4565 0.362888 28.337 1.00883 28.9861C1.65478 29.6353 2.53086 30 3.44437 30H16.0737C16.9872 30 17.8633 29.6353 18.5092 28.9861C19.1552 28.337 19.5181 27.4565 19.5181 26.5385V3.46154C19.5181 2.54348 19.1552 1.66303 18.5092 1.01386C17.8633 0.364697 16.9872 0 16.0737 0L3.44437 0ZM8.61091 1.15385H10.9072C11.0594 1.15385 11.2054 1.21463 11.3131 1.32282C11.4207 1.43102 11.4812 1.57776 11.4812 1.73077C11.4812 1.88378 11.4207 2.03052 11.3131 2.13872C11.2054 2.24691 11.0594 2.30769 10.9072 2.30769H8.61091C8.45866 2.30769 8.31265 2.24691 8.20499 2.13872C8.09733 2.03052 8.03685 1.88378 8.03685 1.73077C8.03685 1.57776 8.09733 1.43102 8.20499 1.32282C8.31265 1.21463 8.45866 1.15385 8.61091 1.15385ZM2.8703 3.46154H16.6478C16.8 3.46154 16.946 3.52232 17.0537 3.63052C17.1613 3.73871 17.2218 3.88545 17.2218 4.03846V23.6538C17.2218 23.8069 17.1613 23.9536 17.0537 24.0618C16.946 24.17 16.8 24.2308 16.6478 24.2308H2.8703C2.71805 24.2308 2.57204 24.17 2.46438 24.0618C2.35673 23.9536 2.29624 23.8069 2.29624 23.6538V4.03846C2.29624 3.88545 2.35673 3.73871 2.46438 3.63052C2.57204 3.52232 2.71805 3.46154 2.8703 3.46154ZM11.41 9.23077C10.9359 9.26192 10.4054 9.55615 10.0817 9.95192C9.78774 10.3096 9.52023 10.8392 9.61552 11.3585C10.1333 11.3723 10.6695 11.0746 10.9795 10.6731C11.2688 10.2992 11.4893 9.77077 11.4089 9.23077H11.41ZM8.21596 11.2858C7.53857 11.2858 6.80721 11.7312 6.35026 12.4396C5.70502 13.4342 5.81064 15.2769 6.85314 16.875C7.22743 17.445 7.74408 18.0946 8.39621 18.1015C8.97372 18.1073 9.11609 17.745 9.90255 17.7404C10.689 17.7358 10.8291 18.1073 11.41 18.1015C12.0599 18.0946 12.6156 17.4092 12.9876 16.8392C13.2539 16.4296 13.355 16.2196 13.5616 15.7569C12.0518 15.1835 11.782 13.0085 13.2746 12.1869C12.8199 11.6169 12.1919 11.2869 11.5891 11.2869C10.7912 11.2869 10.4571 11.6827 9.90255 11.6827C9.33079 11.6827 8.90713 11.2858 8.21596 11.2858ZM9.75904 25.6385C10.5696 25.6385 11.2298 26.3019 11.2298 27.1165C11.2298 27.9312 10.5696 28.5946 9.75904 28.5946C9.36916 28.594 8.99542 28.4381 8.71973 28.161C8.44405 27.884 8.2889 27.5084 8.28829 27.1165C8.28829 26.3019 8.94846 25.6385 9.75904 25.6385Z" fill="white"/>
</svg>
