<svg width="35" height="30" viewBox="0 0 35 30" fill="none" xmlns="http://www.w3.org/2000/svg">
<path d="M0 2.13311C0 1.56737 0.184374 1.02481 0.512563 0.624773C0.840752 0.224738 1.28587 0 1.75 0H33.25C33.7141 0 34.1593 0.224738 34.4874 0.624773C34.8156 1.02481 35 1.56737 35 2.13311C35 2.69884 34.8156 3.2414 34.4874 3.64144C34.1593 4.04147 33.7141 4.26621 33.25 4.26621H1.75C1.28587 4.26621 0.840752 4.04147 0.512563 3.64144C0.184374 3.2414 0 2.69884 0 2.13311Z" fill="white"/>
<path d="M0 15C0 14.4343 0.184374 13.8917 0.512563 13.4917C0.840752 13.0917 1.28587 12.8669 1.75 12.8669H33.25C33.7141 12.8669 34.1593 13.0917 34.4874 13.4917C34.8156 13.8917 35 14.4343 35 15C35 15.5658 34.8156 16.1083 34.4874 16.5084C34.1593 16.9084 33.7141 17.1331 33.25 17.1331H1.75C1.28587 17.1331 0.840752 16.9084 0.512563 16.5084C0.184374 16.1083 0 15.5658 0 15Z" fill="white"/>
<path d="M1.75 25.7338C1.28587 25.7338 0.840752 25.9585 0.512563 26.3585C0.184374 26.7586 0 27.3011 0 27.8669C0 28.4326 0.184374 28.9752 0.512563 29.3752C0.840752 29.7752 1.28587 30 1.75 30H33.25C33.7141 30 34.1593 29.7752 34.4874 29.3752C34.8156 28.9752 35 28.4326 35 27.8669C35 27.3011 34.8156 26.7586 34.4874 26.3585C34.1593 25.9585 33.7141 25.7338 33.25 25.7338H1.75Z" fill="white"/>
</svg>
